{"title":"Mako Mermaids S04E08 720p WEBRip x264-TheRival","uid":14799770,"size":430065789,"categoryP":"video","categoryS":"hd___tv_shows","magnet":"?xt=urn:btih:ada2acd9fb02f17319d00c2aa40f0e4ad23b6b56&amp;dn=Mako+Mermaids+S04E08+720p+WEBRip+x264-TheRival&amp;tr=udp%3A%2F%2Ftracker.leechers-paradise.org%3A6969&amp;tr=udp%3A%2F%2Fzer0day.ch%3A1337&amp;tr=udp%3A%2F%2Fopen.demonii.com%3A1337&amp;tr=udp%3A%2F%2Ftracker.coppersurfer.tk%3A6969&amp;tr=udp%3A%2F%2Fexodus.desync.com%3A6969","seeders":3,"leechers":0,"uploader":"TheRival","files":1,"time":1465115670,"description":"Video\r\nID : 1\r\nFormat : AVC\r\nFormat/Info : Advanced Video Codec\r\nFormat profile :   \r\nFormat settings, CABAC : Yes\r\nFormat settings, ReFrames : 2 frames\r\nFormat settings, GOP : M=1, N=24\r\nCodec ID : avc1\r\nCodec ID/Info : Advanced Video Coding\r\nDuration : 23mn 52s\r\nBit rate mode : Variable\r\nBit rate : 2 261 Kbps\r\nMaximum bit rate : 3 456 Kbps\r\nWidth : 1 280 pixels\r\nHeight : 720 pixels\r\nDisplay aspect ratio : 16:9\r\nFrame rate mode : Constant\r\nFrame rate : 25.000 fps\r\nColor space : YUV\r\nChroma subsampling : 4:2:0\r\nBit depth : 8 bits\r\nScan type : Progressive\r\nBits/(Pixel*Frame) : 0.098\r\nStream size : 386 MiB (94%)\r\nEncoded date : UTC 2016-06-03 16:06:43\r\nTagged date : UTC 2016-06-03 16:09:31\r\nColor primaries : BT.709\r\nTransfer characteristics : BT.709\r\nMatrix coefficients : BT.709\r\n\r\nAudio\r\nID : 2\r\nFormat : AAC\r\nFormat/Info : Advanced Audio Codec\r\nFormat profile : LC\r\nCodec ID : 40\r\nDuration : 23mn 52s\r\nBit rate mode : Variable\r\nBit rate : 128 Kbps\r\nMaximum bit rate : 132 Kbps\r\nChannel(s) : 2 channels\r\nChannel positions : Front: L R\r\nSampling rate : 48.0 KHz\r\nFrame rate : 46.875 fps (1024 spf)\r\nCompression mode : Lossy\r\nStream size : 21.9 MiB (5%)\r\nTitle : Undetermined (aac 2.0)\r\nDefault : Yes\r\nAlternate group : 1","torrent":{"xt":"urn:btih:ada2acd9fb02f17319d00c2aa40f0e4ad23b6b56","amp;dn":"Mako+Mermaids+S04E08+720p+WEBRip+x264-TheRival","amp;tr":["udp%3A%2F%2Ftracker.leechers-paradise.org%3A6969","udp%3A%2F%2Fzer0day.ch%3A1337","udp%3A%2F%2Fopen.demonii.com%3A1337","udp%3A%2F%2Ftracker.coppersurfer.tk%3A6969","udp%3A%2F%2Fexodus.desync.com%3A6969"],"infoHash":"ada2acd9fb02f17319d00c2aa40f0e4ad23b6b56","infoHashBuffer":{"type":"Buffer","data":[173,162,172,217,251,2,241,115,25,208,12,42,164,15,14,74,210,59,107,86]},"announce":[],"urlList":[]}}